<mxfile host="app.diagrams.net" modified="2022-06-22T08:37:25.064Z" agent="5.0 (Windows NT 10.0; Win64; x64) AppleWebKit/537.36 (KHTML, like Gecko) Chrome/102.0.0.0 Safari/537.36" etag="Mo9N-1Uxy7z0SR-GNvv3" version="20.0.1" type="github" pages="4">
  <diagram id="HZe9n2l0ClVb4Da5Xwr6" name="DataArchiecture">
    <mxGraphModel dx="1898" dy="827" grid="1" gridSize="10" guides="1" tooltips="1" connect="1" arrows="1" fold="1" page="1" pageScale="1" pageWidth="1169" pageHeight="827" math="0" shadow="0">
      <root>
        <mxCell id="0" />
        <mxCell id="1" parent="0" />
        <mxCell id="1s-YOk3iyrwi0xUX-N1H-1" value="Lesson Plan" style="swimlane;fontStyle=1;childLayout=stackLayout;horizontal=1;startSize=30;horizontalStack=0;resizeParent=1;resizeParentMax=0;resizeLast=0;collapsible=1;marginBottom=0;fontFamily=Barlow Condensed;fontSource=https%3A%2F%2Ffonts.googleapis.com%2Fcss%3Ffamily%3DBarlow%2BCondensed;fontSize=22;fillColor=#6a00ff;fontColor=#ffffff;strokeColor=none;" parent="1" vertex="1">
          <mxGeometry x="50" y="50" width="660" height="480" as="geometry" />
        </mxCell>
        <mxCell id="1s-YOk3iyrwi0xUX-N1H-2" value="Introductions: Who am I? Who are you?                                    (20 min)" style="text;strokeColor=#6c8ebf;fillColor=#dae8fc;align=left;verticalAlign=middle;spacingLeft=4;spacingRight=4;overflow=hidden;points=[[0,0.5],[1,0.5]];portConstraint=eastwest;rotatable=0;fontFamily=Barlow Condensed;fontSource=https%3A%2F%2Ffonts.googleapis.com%2Fcss%3Ffamily%3DBarlow%2BCondensed;fontSize=22;" parent="1s-YOk3iyrwi0xUX-N1H-1" vertex="1">
          <mxGeometry y="30" width="660" height="30" as="geometry" />
        </mxCell>
        <mxCell id="1s-YOk3iyrwi0xUX-N1H-3" value="Discussion: What is Data Architecture &amp; Data Modelling?       (15 min)" style="text;strokeColor=none;fillColor=#dae8fc;align=left;verticalAlign=middle;spacingLeft=4;spacingRight=4;overflow=hidden;points=[[0,0.5],[1,0.5]];portConstraint=eastwest;rotatable=0;fontFamily=Barlow Condensed;fontSource=https%3A%2F%2Ffonts.googleapis.com%2Fcss%3Ffamily%3DBarlow%2BCondensed;fontSize=22;" parent="1s-YOk3iyrwi0xUX-N1H-1" vertex="1">
          <mxGeometry y="60" width="660" height="30" as="geometry" />
        </mxCell>
        <mxCell id="1s-YOk3iyrwi0xUX-N1H-9" value="Group Activity: Design a Library Data Model                              (20 min)" style="text;align=left;verticalAlign=middle;spacingLeft=4;spacingRight=4;overflow=hidden;points=[[0,0.5],[1,0.5]];portConstraint=eastwest;rotatable=0;fontFamily=Barlow Condensed;fontSource=https%3A%2F%2Ffonts.googleapis.com%2Fcss%3Ffamily%3DBarlow%2BCondensed;fontSize=22;fillColor=#1ba1e2;strokeColor=none;fontStyle=0;fontColor=#ffffff;" parent="1s-YOk3iyrwi0xUX-N1H-1" vertex="1">
          <mxGeometry y="90" width="660" height="30" as="geometry" />
        </mxCell>
        <mxCell id="1s-YOk3iyrwi0xUX-N1H-7" value="1 HOUR MARK                                   BREAK                                   (15 min) " style="text;strokeColor=none;fillColor=#000000;align=left;verticalAlign=middle;spacingLeft=4;spacingRight=4;overflow=hidden;points=[[0,0.5],[1,0.5]];portConstraint=eastwest;rotatable=0;fontFamily=Barlow Condensed;fontSource=https%3A%2F%2Ffonts.googleapis.com%2Fcss%3Ffamily%3DBarlow%2BCondensed;fontSize=22;fontStyle=0;fontColor=#FFFFFF;" parent="1s-YOk3iyrwi0xUX-N1H-1" vertex="1">
          <mxGeometry y="120" width="660" height="30" as="geometry" />
        </mxCell>
        <mxCell id="1s-YOk3iyrwi0xUX-N1H-10" value="Discussion: Review Data Models                                                 (10 min)" style="text;strokeColor=none;fillColor=#dae8fc;align=left;verticalAlign=middle;spacingLeft=4;spacingRight=4;overflow=hidden;points=[[0,0.5],[1,0.5]];portConstraint=eastwest;rotatable=0;fontFamily=Barlow Condensed;fontSource=https%3A%2F%2Ffonts.googleapis.com%2Fcss%3Ffamily%3DBarlow%2BCondensed;fontSize=22;" parent="1s-YOk3iyrwi0xUX-N1H-1" vertex="1">
          <mxGeometry y="150" width="660" height="30" as="geometry" />
        </mxCell>
        <mxCell id="1s-YOk3iyrwi0xUX-N1H-15" value="Discussion: Python for ETL                                                         (20 min)" style="text;strokeColor=none;fillColor=#dae8fc;align=left;verticalAlign=middle;spacingLeft=4;spacingRight=4;overflow=hidden;points=[[0,0.5],[1,0.5]];portConstraint=eastwest;rotatable=0;fontFamily=Barlow Condensed;fontSource=https%3A%2F%2Ffonts.googleapis.com%2Fcss%3Ffamily%3DBarlow%2BCondensed;fontSize=22;" parent="1s-YOk3iyrwi0xUX-N1H-1" vertex="1">
          <mxGeometry y="180" width="660" height="30" as="geometry" />
        </mxCell>
        <mxCell id="1s-YOk3iyrwi0xUX-N1H-33" value="Individual Activity: Extract with Python                                     (20 min)" style="text;align=left;verticalAlign=middle;spacingLeft=4;spacingRight=4;overflow=hidden;points=[[0,0.5],[1,0.5]];portConstraint=eastwest;rotatable=0;fontFamily=Barlow Condensed;fontSource=https%3A%2F%2Ffonts.googleapis.com%2Fcss%3Ffamily%3DBarlow%2BCondensed;fontSize=22;fillColor=#1ba1e2;strokeColor=none;fontStyle=0;fontColor=#ffffff;" parent="1s-YOk3iyrwi0xUX-N1H-1" vertex="1">
          <mxGeometry y="210" width="660" height="30" as="geometry" />
        </mxCell>
        <mxCell id="KW4pgRJSblPoe1ae_6xs-1" value="Discussion: Review (10 min)" style="text;strokeColor=none;fillColor=#dae8fc;align=left;verticalAlign=middle;spacingLeft=4;spacingRight=4;overflow=hidden;points=[[0,0.5],[1,0.5]];portConstraint=eastwest;rotatable=0;fontFamily=Barlow Condensed;fontSource=https%3A%2F%2Ffonts.googleapis.com%2Fcss%3Ffamily%3DBarlow%2BCondensed;fontSize=22;" parent="1s-YOk3iyrwi0xUX-N1H-1" vertex="1">
          <mxGeometry y="240" width="660" height="30" as="geometry" />
        </mxCell>
        <mxCell id="1s-YOk3iyrwi0xUX-N1H-13" value="2 HOUR MARK                                 BREAK                                     (5 min)" style="text;strokeColor=none;fillColor=#000000;align=left;verticalAlign=middle;spacingLeft=4;spacingRight=4;overflow=hidden;points=[[0,0.5],[1,0.5]];portConstraint=eastwest;rotatable=0;fontFamily=Barlow Condensed;fontSource=https%3A%2F%2Ffonts.googleapis.com%2Fcss%3Ffamily%3DBarlow%2BCondensed;fontSize=22;fontStyle=0;fontColor=#FFFFFF;" parent="1s-YOk3iyrwi0xUX-N1H-1" vertex="1">
          <mxGeometry y="270" width="660" height="30" as="geometry" />
        </mxCell>
        <mxCell id="KW4pgRJSblPoe1ae_6xs-2" value="Discussion: Transform &amp; Load                                                    (10 min)" style="text;strokeColor=none;fillColor=#dae8fc;align=left;verticalAlign=middle;spacingLeft=4;spacingRight=4;overflow=hidden;points=[[0,0.5],[1,0.5]];portConstraint=eastwest;rotatable=0;fontFamily=Barlow Condensed;fontSource=https%3A%2F%2Ffonts.googleapis.com%2Fcss%3Ffamily%3DBarlow%2BCondensed;fontSize=22;" parent="1s-YOk3iyrwi0xUX-N1H-1" vertex="1">
          <mxGeometry y="300" width="660" height="30" as="geometry" />
        </mxCell>
        <mxCell id="1s-YOk3iyrwi0xUX-N1H-12" value="Group Activity: Transform &amp; Load                                              (30 min)  " style="text;align=left;verticalAlign=middle;spacingLeft=4;spacingRight=4;overflow=hidden;points=[[0,0.5],[1,0.5]];portConstraint=eastwest;rotatable=0;fontFamily=Barlow Condensed;fontSource=https%3A%2F%2Ffonts.googleapis.com%2Fcss%3Ffamily%3DBarlow%2BCondensed;fontSize=22;fillColor=#1ba1e2;strokeColor=none;fontStyle=0;fontColor=#ffffff;" parent="1s-YOk3iyrwi0xUX-N1H-1" vertex="1">
          <mxGeometry y="330" width="660" height="30" as="geometry" />
        </mxCell>
        <mxCell id="1s-YOk3iyrwi0xUX-N1H-17" value="3 HOUR MARK                                 " style="text;strokeColor=none;fillColor=#000000;align=left;verticalAlign=middle;spacingLeft=4;spacingRight=4;overflow=hidden;points=[[0,0.5],[1,0.5]];portConstraint=eastwest;rotatable=0;fontFamily=Barlow Condensed;fontSource=https%3A%2F%2Ffonts.googleapis.com%2Fcss%3Ffamily%3DBarlow%2BCondensed;fontSize=22;fontStyle=0;fontColor=#FFFFFF;" parent="1s-YOk3iyrwi0xUX-N1H-1" vertex="1">
          <mxGeometry y="360" width="660" height="30" as="geometry" />
        </mxCell>
        <mxCell id="1s-YOk3iyrwi0xUX-N1H-14" value="Discussion: Review (10 min)" style="text;strokeColor=none;fillColor=#dae8fc;align=left;verticalAlign=middle;spacingLeft=4;spacingRight=4;overflow=hidden;points=[[0,0.5],[1,0.5]];portConstraint=eastwest;rotatable=0;fontFamily=Barlow Condensed;fontSource=https%3A%2F%2Ffonts.googleapis.com%2Fcss%3Ffamily%3DBarlow%2BCondensed;fontSize=22;" parent="1s-YOk3iyrwi0xUX-N1H-1" vertex="1">
          <mxGeometry y="390" width="660" height="30" as="geometry" />
        </mxCell>
        <mxCell id="1s-YOk3iyrwi0xUX-N1H-16" value="Individual Activity: Run the Report                                              (10 min)" style="text;align=left;verticalAlign=middle;spacingLeft=4;spacingRight=4;overflow=hidden;points=[[0,0.5],[1,0.5]];portConstraint=eastwest;rotatable=0;fontFamily=Barlow Condensed;fontSource=https%3A%2F%2Ffonts.googleapis.com%2Fcss%3Ffamily%3DBarlow%2BCondensed;fontSize=22;fillColor=#1ba1e2;strokeColor=none;fontStyle=0;fontColor=#ffffff;" parent="1s-YOk3iyrwi0xUX-N1H-1" vertex="1">
          <mxGeometry y="420" width="660" height="30" as="geometry" />
        </mxCell>
        <mxCell id="1s-YOk3iyrwi0xUX-N1H-18" value="Next Steps, Review &amp; Finish (5 min)" style="text;strokeColor=none;fillColor=#dae8fc;align=left;verticalAlign=middle;spacingLeft=4;spacingRight=4;overflow=hidden;points=[[0,0.5],[1,0.5]];portConstraint=eastwest;rotatable=0;fontFamily=Barlow Condensed;fontSource=https%3A%2F%2Ffonts.googleapis.com%2Fcss%3Ffamily%3DBarlow%2BCondensed;fontSize=22;" parent="1s-YOk3iyrwi0xUX-N1H-1" vertex="1">
          <mxGeometry y="450" width="660" height="30" as="geometry" />
        </mxCell>
        <mxCell id="1s-YOk3iyrwi0xUX-N1H-19" value="Data Architecture" style="ellipse;shape=cloud;whiteSpace=wrap;html=1;fillColor=#FFFF33;strokeColor=none;fontFamily=Barlow Condensed;fontSource=https%3A%2F%2Ffonts.googleapis.com%2Fcss%3Ffamily%3DBarlow%2BCondensed;fontSize=32;fontStyle=1" parent="1" vertex="1">
          <mxGeometry x="700" y="10" width="456" height="271.52" as="geometry" />
        </mxCell>
        <mxCell id="1s-YOk3iyrwi0xUX-N1H-20" value="Safeguarding" style="rounded=1;whiteSpace=wrap;html=1;fontFamily=Barlow Condensed;fontSource=https%3A%2F%2Ffonts.googleapis.com%2Fcss%3Ffamily%3DBarlow%2BCondensed;fontSize=22;fillColor=#FFFF33;strokeColor=none;fontStyle=1" parent="1" vertex="1">
          <mxGeometry x="836" y="475" width="270" height="60" as="geometry" />
        </mxCell>
        <mxCell id="1s-YOk3iyrwi0xUX-N1H-21" value="Courseware" style="rounded=1;whiteSpace=wrap;html=1;fontFamily=Barlow Condensed;fontSource=https%3A%2F%2Ffonts.googleapis.com%2Fcss%3Ffamily%3DBarlow%2BCondensed;fontSize=22;fillColor=#FFFF33;strokeColor=none;fontStyle=1" parent="1" vertex="1">
          <mxGeometry x="836" y="750" width="270" height="60" as="geometry" />
        </mxCell>
        <mxCell id="1s-YOk3iyrwi0xUX-N1H-22" value="Introductions" style="rounded=1;whiteSpace=wrap;html=1;fontFamily=Barlow Condensed;fontSource=https%3A%2F%2Ffonts.googleapis.com%2Fcss%3Ffamily%3DBarlow%2BCondensed;fontSize=22;fillColor=#FFFF33;strokeColor=none;fontStyle=1" parent="1" vertex="1">
          <mxGeometry x="836" y="350" width="270" height="60" as="geometry" />
        </mxCell>
        <mxCell id="1s-YOk3iyrwi0xUX-N1H-23" value="Values &amp;amp; Principles" style="rounded=1;whiteSpace=wrap;html=1;fontFamily=Barlow Condensed;fontSource=https%3A%2F%2Ffonts.googleapis.com%2Fcss%3Ffamily%3DBarlow%2BCondensed;fontSize=22;fillColor=#FFFF33;strokeColor=none;fontStyle=1" parent="1" vertex="1">
          <mxGeometry x="836" y="412" width="270" height="60" as="geometry" />
        </mxCell>
        <UserObject label="https://github.com/michaelburgess-d/modules-public-live" link="https://github.com/michaelburgess-d/decoded-public-code" id="1s-YOk3iyrwi0xUX-N1H-24">
          <mxCell style="text;whiteSpace=wrap;html=1;fontSize=26;fontFamily=Barlow Condensed;fontSource=https%3A%2F%2Ffonts.googleapis.com%2Fcss%3Ffamily%3DBarlow%2BCondensed;fontStyle=1;strokeColor=none;" parent="1" vertex="1">
            <mxGeometry x="40" y="720" width="650" height="40" as="geometry" />
          </mxCell>
        </UserObject>
        <mxCell id="1s-YOk3iyrwi0xUX-N1H-25" value="Wellbeing" style="rounded=1;whiteSpace=wrap;html=1;fontFamily=Barlow Condensed;fontSource=https%3A%2F%2Ffonts.googleapis.com%2Fcss%3Ffamily%3DBarlow%2BCondensed;fontSize=22;fillColor=#1ba1e2;strokeColor=none;fontStyle=0;fontColor=#ffffff;" parent="1" vertex="1">
          <mxGeometry x="886" y="540" width="270" height="60" as="geometry" />
        </mxCell>
        <mxCell id="1s-YOk3iyrwi0xUX-N1H-26" value="safeguarding@decoded.com" style="rounded=1;whiteSpace=wrap;html=1;fontFamily=Barlow Condensed;fontSource=https%3A%2F%2Ffonts.googleapis.com%2Fcss%3Ffamily%3DBarlow%2BCondensed;fontSize=22;fillColor=#1ba1e2;strokeColor=#006EAF;fontStyle=1;fontColor=#ffffff;" parent="1" vertex="1">
          <mxGeometry x="886" y="610" width="270" height="60" as="geometry" />
        </mxCell>
        <mxCell id="1s-YOk3iyrwi0xUX-N1H-27" value="stressed, overwhelmed, struggling" style="rounded=1;whiteSpace=wrap;html=1;fontFamily=Barlow Condensed;fontSource=https%3A%2F%2Ffonts.googleapis.com%2Fcss%3Ffamily%3DBarlow%2BCondensed;fontSize=22;fillColor=#1ba1e2;strokeColor=#006EAF;fontStyle=0;fontColor=#ffffff;" parent="1" vertex="1">
          <mxGeometry x="886" y="680" width="270" height="60" as="geometry" />
        </mxCell>
        <mxCell id="kHTzqbHaPCYti8Byg7Zm-1" value="Ask in Chat or on Mic" style="rounded=1;whiteSpace=wrap;html=1;fontFamily=Barlow Condensed;fontSource=https%3A%2F%2Ffonts.googleapis.com%2Fcss%3Ffamily%3DBarlow%2BCondensed;fontSize=22;fillColor=#FFFF33;strokeColor=none;fontStyle=1" vertex="1" parent="1">
          <mxGeometry x="230" y="620" width="270" height="60" as="geometry" />
        </mxCell>
      </root>
    </mxGraphModel>
  </diagram>
  <diagram id="S3rxQqn5xhS6ePLu4Hfa" name="WhatIsDataArch?">
    <mxGraphModel dx="2453" dy="2363" grid="1" gridSize="10" guides="1" tooltips="1" connect="1" arrows="1" fold="1" page="1" pageScale="1" pageWidth="1169" pageHeight="827" math="0" shadow="0">
      <root>
        <mxCell id="0" />
        <mxCell id="1" parent="0" />
        <mxCell id="CWn8RSCjkhXgX-i-o0oG-1" value="What is relevant to&lt;br style=&quot;font-size: 26px;&quot;&gt;&amp;nbsp;Data Architecture?" style="ellipse;shape=cloud;whiteSpace=wrap;html=1;fillColor=#FFFF33;strokeColor=none;fontFamily=Barlow Condensed;fontSource=https%3A%2F%2Ffonts.googleapis.com%2Fcss%3Ffamily%3DBarlow%2BCondensed;fontSize=26;fontStyle=1" parent="1" vertex="1">
          <mxGeometry x="-780" y="-550" width="430" height="184" as="geometry" />
        </mxCell>
        <mxCell id="EinBdlgoCf5DDzFbNlJO-2" value="Rules &amp;amp; Stanards" style="ellipse;whiteSpace=wrap;html=1;aspect=fixed;fillColor=#ffe6cc;strokeColor=#d79b00;fontSize=19;" vertex="1" parent="1">
          <mxGeometry x="-870" y="-630" width="130" height="130" as="geometry" />
        </mxCell>
        <mxCell id="EinBdlgoCf5DDzFbNlJO-3" value="What function provides this?" style="shape=callout;whiteSpace=wrap;html=1;perimeter=calloutPerimeter;fillColor=#e1d5e7;strokeColor=#9673a6;fontSize=12;" vertex="1" parent="1">
          <mxGeometry x="-850" y="-680" width="120" height="80" as="geometry" />
        </mxCell>
        <mxCell id="EinBdlgoCf5DDzFbNlJO-4" value="Data Governance" style="rounded=1;whiteSpace=wrap;html=1;fillColor=#dae8fc;strokeColor=#6c8ebf;fontSize=19;" vertex="1" parent="1">
          <mxGeometry x="-705" y="-750" width="120" height="60" as="geometry" />
        </mxCell>
        <mxCell id="EinBdlgoCf5DDzFbNlJO-5" value="Data Sourcing" style="ellipse;whiteSpace=wrap;html=1;aspect=fixed;fillColor=#ffe6cc;strokeColor=#d79b00;fontSize=19;" vertex="1" parent="1">
          <mxGeometry x="-530" y="-730" width="130" height="130" as="geometry" />
        </mxCell>
        <mxCell id="EinBdlgoCf5DDzFbNlJO-7" value="Data Strategy" style="ellipse;whiteSpace=wrap;html=1;aspect=fixed;fillColor=#ffe6cc;strokeColor=#d79b00;fontSize=19;" vertex="1" parent="1">
          <mxGeometry x="-880" y="-413" width="130" height="130" as="geometry" />
        </mxCell>
        <mxCell id="EinBdlgoCf5DDzFbNlJO-9" value="Data Architecture" style="rounded=1;whiteSpace=wrap;html=1;fillColor=#dae8fc;strokeColor=#6c8ebf;fontSize=19;" vertex="1" parent="1">
          <mxGeometry x="-970" y="-330" width="120" height="60" as="geometry" />
        </mxCell>
        <mxCell id="EinBdlgoCf5DDzFbNlJO-10" value="Databases" style="ellipse;whiteSpace=wrap;html=1;aspect=fixed;fillColor=#ffe6cc;strokeColor=#d79b00;fontSize=19;" vertex="1" parent="1">
          <mxGeometry x="-310" y="-420" width="130" height="130" as="geometry" />
        </mxCell>
        <mxCell id="EinBdlgoCf5DDzFbNlJO-11" value="Data Formats" style="rounded=1;whiteSpace=wrap;html=1;fillColor=#d5e8d4;strokeColor=#82b366;fontSize=19;" vertex="1" parent="1">
          <mxGeometry x="-440" y="-790" width="120" height="60" as="geometry" />
        </mxCell>
        <mxCell id="EinBdlgoCf5DDzFbNlJO-12" value="XML" style="rounded=1;whiteSpace=wrap;html=1;fillColor=#dae8fc;strokeColor=#6c8ebf;fontSize=19;" vertex="1" parent="1">
          <mxGeometry x="-280" y="-820" width="120" height="60" as="geometry" />
        </mxCell>
        <mxCell id="EinBdlgoCf5DDzFbNlJO-14" value="&lt;div&gt;models, policies, or standards that govern flow of data in your business&lt;/div&gt;&lt;div&gt;&lt;br&gt;&lt;/div&gt;" style="shape=document;whiteSpace=wrap;html=1;boundedLbl=1;fontSize=12;fillColor=#fff2cc;strokeColor=#d6b656;" vertex="1" parent="1">
          <mxGeometry x="-1040" y="-240" width="210" height="80" as="geometry" />
        </mxCell>
        <mxCell id="EinBdlgoCf5DDzFbNlJO-16" value="JSON" style="rounded=1;whiteSpace=wrap;html=1;fillColor=#dae8fc;strokeColor=#6c8ebf;fontSize=19;" vertex="1" parent="1">
          <mxGeometry x="-280" y="-750" width="120" height="60" as="geometry" />
        </mxCell>
        <mxCell id="EinBdlgoCf5DDzFbNlJO-17" value="CSV" style="rounded=1;whiteSpace=wrap;html=1;fillColor=#dae8fc;strokeColor=#6c8ebf;fontSize=19;" vertex="1" parent="1">
          <mxGeometry x="-290" y="-560" width="120" height="60" as="geometry" />
        </mxCell>
        <mxCell id="EinBdlgoCf5DDzFbNlJO-18" value="What is each line of a csv file?" style="shape=callout;whiteSpace=wrap;html=1;perimeter=calloutPerimeter;fontSize=12;" vertex="1" parent="1">
          <mxGeometry x="-240" y="-600" width="120" height="80" as="geometry" />
        </mxCell>
        <mxCell id="EinBdlgoCf5DDzFbNlJO-19" value="text, &lt;br&gt;comma separated&lt;br&gt;&lt;br&gt;&lt;b&gt;&lt;u&gt;&lt;font style=&quot;font-size: 19px;&quot;&gt;row&lt;/font&gt;&lt;/u&gt;&lt;/b&gt;" style="shape=document;whiteSpace=wrap;html=1;boundedLbl=1;fontSize=12;" vertex="1" parent="1">
          <mxGeometry x="-160" y="-520" width="120" height="100" as="geometry" />
        </mxCell>
        <mxCell id="EinBdlgoCf5DDzFbNlJO-20" value="{ &lt;br&gt;&amp;nbsp; &quot;name&quot;: &quot;Michael&quot;,&lt;br&gt;&amp;nbsp; &quot;loans&quot;:[&lt;br&gt;&amp;nbsp; &amp;nbsp; &amp;nbsp; {&quot;amount&quot;: 1000},&amp;nbsp; &amp;nbsp; &amp;nbsp; &amp;nbsp; &amp;nbsp; {&quot;amount&quot;: 200}&lt;br&gt;&amp;nbsp; &amp;nbsp; ]&lt;br&gt;}" style="whiteSpace=wrap;html=1;aspect=fixed;fontSize=19;align=left;fontFamily=Courier New;" vertex="1" parent="1">
          <mxGeometry x="-110" y="-900" width="310" height="310" as="geometry" />
        </mxCell>
        <mxCell id="EinBdlgoCf5DDzFbNlJO-21" value="What&#39;s different about the loan field?" style="shape=callout;whiteSpace=wrap;html=1;perimeter=calloutPerimeter;fontSize=12;fillColor=#e1d5e7;strokeColor=#9673a6;" vertex="1" parent="1">
          <mxGeometry x="10" y="-930" width="120" height="80" as="geometry" />
        </mxCell>
        <mxCell id="EinBdlgoCf5DDzFbNlJO-22" value="how is this different?" style="shape=callout;whiteSpace=wrap;html=1;perimeter=calloutPerimeter;fontFamily=Courier New;fontSize=19;" vertex="1" parent="1">
          <mxGeometry x="10" y="-680" width="200" height="80" as="geometry" />
        </mxCell>
        <mxCell id="EinBdlgoCf5DDzFbNlJO-23" value="Key-Value Pairs" style="rounded=1;whiteSpace=wrap;html=1;fillColor=#dae8fc;strokeColor=#6c8ebf;fontSize=19;" vertex="1" parent="1">
          <mxGeometry x="180" y="-860" width="180" height="60" as="geometry" />
        </mxCell>
        <mxCell id="EinBdlgoCf5DDzFbNlJO-24" value="Hierarchical" style="rounded=1;whiteSpace=wrap;html=1;fillColor=#dae8fc;strokeColor=#6c8ebf;fontSize=19;" vertex="1" parent="1">
          <mxGeometry x="180" y="-790" width="180" height="60" as="geometry" />
        </mxCell>
        <mxCell id="EinBdlgoCf5DDzFbNlJO-25" value="Documents" style="rounded=1;whiteSpace=wrap;html=1;fillColor=#dae8fc;strokeColor=#6c8ebf;fontSize=19;" vertex="1" parent="1">
          <mxGeometry x="240" y="-720" width="180" height="60" as="geometry" />
        </mxCell>
        <mxCell id="EinBdlgoCf5DDzFbNlJO-26" value="Cube =&amp;nbsp;&lt;br&gt;Multi-table summary" style="rounded=1;whiteSpace=wrap;html=1;fillColor=#dae8fc;strokeColor=#6c8ebf;fontSize=19;" vertex="1" parent="1">
          <mxGeometry x="90" y="-413" width="220" height="60" as="geometry" />
        </mxCell>
        <mxCell id="EinBdlgoCf5DDzFbNlJO-28" value="Excel" style="rounded=1;whiteSpace=wrap;html=1;fillColor=#dae8fc;strokeColor=#6c8ebf;fontSize=19;" vertex="1" parent="1">
          <mxGeometry x="-280" y="-680" width="120" height="60" as="geometry" />
        </mxCell>
        <mxCell id="EinBdlgoCf5DDzFbNlJO-29" value="Table&amp;nbsp;" style="rounded=1;whiteSpace=wrap;html=1;fillColor=#dae8fc;strokeColor=#6c8ebf;fontSize=19;" vertex="1" parent="1">
          <mxGeometry x="-490" y="-300" width="120" height="60" as="geometry" />
        </mxCell>
        <mxCell id="EinBdlgoCf5DDzFbNlJO-30" value="Abstract &lt;br&gt;Data Structure" style="rounded=1;whiteSpace=wrap;html=1;fillColor=#d5e8d4;strokeColor=#82b366;fontSize=19;" vertex="1" parent="1">
          <mxGeometry x="-710" y="-210" width="170" height="60" as="geometry" />
        </mxCell>
        <mxCell id="EinBdlgoCf5DDzFbNlJO-32" value="Graphs" style="rounded=1;whiteSpace=wrap;html=1;fillColor=#dae8fc;strokeColor=#6c8ebf;fontSize=19;" vertex="1" parent="1">
          <mxGeometry x="-490" y="-230" width="120" height="60" as="geometry" />
        </mxCell>
        <mxCell id="EinBdlgoCf5DDzFbNlJO-33" value="Documents" style="rounded=1;whiteSpace=wrap;html=1;fillColor=#dae8fc;strokeColor=#6c8ebf;fontSize=19;" vertex="1" parent="1">
          <mxGeometry x="-490" y="-160" width="120" height="60" as="geometry" />
        </mxCell>
        <mxCell id="EinBdlgoCf5DDzFbNlJO-34" value="Key-Value" style="rounded=1;whiteSpace=wrap;html=1;fillColor=#dae8fc;strokeColor=#6c8ebf;fontSize=19;" vertex="1" parent="1">
          <mxGeometry x="-490" y="-90" width="120" height="60" as="geometry" />
        </mxCell>
        <mxCell id="EinBdlgoCf5DDzFbNlJO-36" value="Relational = Tabular" style="rounded=1;whiteSpace=wrap;html=1;fillColor=#dae8fc;strokeColor=#6c8ebf;fontSize=19;" vertex="1" parent="1">
          <mxGeometry x="-190" y="-385" width="240" height="60" as="geometry" />
        </mxCell>
      </root>
    </mxGraphModel>
  </diagram>
  <diagram id="jCLMIWq_1vB8zeG8ipoq" name="DataModels_ERD">
    <mxGraphModel dx="1284" dy="1878" grid="1" gridSize="10" guides="1" tooltips="1" connect="1" arrows="1" fold="1" page="1" pageScale="1" pageWidth="827" pageHeight="1169" math="0" shadow="0">
      <root>
        <mxCell id="0" />
        <mxCell id="1" parent="0" />
        <mxCell id="yJ6wIB-U027TBbkVvZGt-1" value="What are Data Models &amp;amp; ERDs?" style="ellipse;shape=cloud;whiteSpace=wrap;html=1;fillColor=#FFFF33;strokeColor=none;fontFamily=Barlow Condensed;fontSource=https%3A%2F%2Ffonts.googleapis.com%2Fcss%3Ffamily%3DBarlow%2BCondensed;fontSize=26;fontStyle=1" vertex="1" parent="1">
          <mxGeometry x="199" y="-570" width="430" height="184" as="geometry" />
        </mxCell>
        <mxCell id="yJ6wIB-U027TBbkVvZGt-2" value="Data Stored" style="ellipse;whiteSpace=wrap;html=1;aspect=fixed;fontFamily=Courier New;fontSize=19;" vertex="1" parent="1">
          <mxGeometry x="320" y="-295" width="110" height="110" as="geometry" />
        </mxCell>
        <mxCell id="yJ6wIB-U027TBbkVvZGt-3" value="What does ERD stand for?" style="shape=callout;whiteSpace=wrap;html=1;perimeter=calloutPerimeter;fontFamily=Helvetica;fontSize=19;base=20;" vertex="1" parent="1">
          <mxGeometry x="399" y="-584" width="230" height="80" as="geometry" />
        </mxCell>
        <mxCell id="yJ6wIB-U027TBbkVvZGt-4" value="Entity&amp;nbsp;&lt;br&gt;Relationship&lt;br&gt;Diagram" style="shape=document;whiteSpace=wrap;html=1;boundedLbl=1;fontFamily=Helvetica;fontSize=19;" vertex="1" parent="1">
          <mxGeometry x="470" y="-330" width="310" height="180" as="geometry" />
        </mxCell>
        <mxCell id="yJ6wIB-U027TBbkVvZGt-5" value="What does ERD tell you?" style="shape=callout;whiteSpace=wrap;html=1;perimeter=calloutPerimeter;fontFamily=Helvetica;fontSize=19;base=20;" vertex="1" parent="1">
          <mxGeometry x="597" y="-390" width="230" height="80" as="geometry" />
        </mxCell>
        <mxCell id="yJ6wIB-U027TBbkVvZGt-7" value="Data&amp;nbsp;&lt;br&gt;Relates" style="ellipse;whiteSpace=wrap;html=1;aspect=fixed;fontFamily=Courier New;fontSize=19;" vertex="1" parent="1">
          <mxGeometry x="320" y="-170" width="110" height="110" as="geometry" />
        </mxCell>
      </root>
    </mxGraphModel>
  </diagram>
  <diagram id="VniSl-ujel4n1w6HcN9K" name="DataArch">
    <mxGraphModel dx="899" dy="496" grid="1" gridSize="10" guides="1" tooltips="1" connect="1" arrows="1" fold="1" page="1" pageScale="1" pageWidth="1169" pageHeight="827" math="0" shadow="0">
      <root>
        <mxCell id="0" />
        <mxCell id="1" parent="0" />
        <mxCell id="uNGdqKEiS1IPH4_wUevu-1" value="" style="shape=cylinder3;whiteSpace=wrap;html=1;boundedLbl=1;backgroundOutline=1;size=15;fontFamily=Helvetica;fontSize=19;" vertex="1" parent="1">
          <mxGeometry x="120" y="70" width="60" height="80" as="geometry" />
        </mxCell>
        <mxCell id="uNGdqKEiS1IPH4_wUevu-2" value="" style="shape=cylinder3;whiteSpace=wrap;html=1;boundedLbl=1;backgroundOutline=1;size=15;fontFamily=Helvetica;fontSize=19;" vertex="1" parent="1">
          <mxGeometry x="120" y="180" width="60" height="80" as="geometry" />
        </mxCell>
        <mxCell id="uNGdqKEiS1IPH4_wUevu-3" value="web" style="ellipse;shape=cloud;whiteSpace=wrap;html=1;fontFamily=Helvetica;fontSize=19;" vertex="1" parent="1">
          <mxGeometry x="80" y="280" width="120" height="80" as="geometry" />
        </mxCell>
        <mxCell id="uNGdqKEiS1IPH4_wUevu-4" value="" style="verticalLabelPosition=bottom;html=1;verticalAlign=top;align=center;strokeColor=none;fillColor=#00BEF2;shape=mxgraph.azure.user;fontFamily=Helvetica;fontSize=19;" vertex="1" parent="1">
          <mxGeometry x="810" y="90" width="47.5" height="50" as="geometry" />
        </mxCell>
        <mxCell id="uNGdqKEiS1IPH4_wUevu-5" value="" style="shape=flexArrow;endArrow=classic;html=1;rounded=0;fontFamily=Helvetica;fontSize=19;exitX=1;exitY=0;exitDx=0;exitDy=52.5;exitPerimeter=0;" edge="1" parent="1" source="uNGdqKEiS1IPH4_wUevu-1">
          <mxGeometry width="50" height="50" relative="1" as="geometry">
            <mxPoint x="430" y="280" as="sourcePoint" />
            <mxPoint x="360" y="230" as="targetPoint" />
          </mxGeometry>
        </mxCell>
        <mxCell id="uNGdqKEiS1IPH4_wUevu-6" value="" style="shape=flexArrow;endArrow=classic;html=1;rounded=0;fontFamily=Helvetica;fontSize=19;exitX=1;exitY=0;exitDx=0;exitDy=52.5;exitPerimeter=0;" edge="1" parent="1">
          <mxGeometry width="50" height="50" relative="1" as="geometry">
            <mxPoint x="180" y="220" as="sourcePoint" />
            <mxPoint x="360" y="230" as="targetPoint" />
          </mxGeometry>
        </mxCell>
        <mxCell id="uNGdqKEiS1IPH4_wUevu-7" value="" style="shape=cylinder3;whiteSpace=wrap;html=1;boundedLbl=1;backgroundOutline=1;size=15;fontFamily=Helvetica;fontSize=19;" vertex="1" parent="1">
          <mxGeometry x="350" y="190" width="60" height="80" as="geometry" />
        </mxCell>
        <mxCell id="uNGdqKEiS1IPH4_wUevu-8" value="" style="shape=flexArrow;endArrow=classic;html=1;rounded=0;fontFamily=Helvetica;fontSize=19;exitX=1;exitY=0.5;exitDx=0;exitDy=0;exitPerimeter=0;" edge="1" parent="1" source="uNGdqKEiS1IPH4_wUevu-7" target="uNGdqKEiS1IPH4_wUevu-9">
          <mxGeometry width="50" height="50" relative="1" as="geometry">
            <mxPoint x="430" y="280" as="sourcePoint" />
            <mxPoint x="540" y="230" as="targetPoint" />
          </mxGeometry>
        </mxCell>
        <mxCell id="uNGdqKEiS1IPH4_wUevu-9" value="Excel" style="ellipse;whiteSpace=wrap;html=1;aspect=fixed;fontFamily=Helvetica;fontSize=19;" vertex="1" parent="1">
          <mxGeometry x="640" y="50" width="80" height="80" as="geometry" />
        </mxCell>
        <mxCell id="uNGdqKEiS1IPH4_wUevu-10" value="PowerBI" style="ellipse;whiteSpace=wrap;html=1;aspect=fixed;fontFamily=Helvetica;fontSize=19;" vertex="1" parent="1">
          <mxGeometry x="640" y="150" width="80" height="80" as="geometry" />
        </mxCell>
        <mxCell id="uNGdqKEiS1IPH4_wUevu-11" value="" style="shape=flexArrow;endArrow=classic;html=1;rounded=0;fontFamily=Helvetica;fontSize=19;entryX=0;entryY=0.5;entryDx=0;entryDy=0;" edge="1" parent="1" target="uNGdqKEiS1IPH4_wUevu-10">
          <mxGeometry width="50" height="50" relative="1" as="geometry">
            <mxPoint x="410" y="240" as="sourcePoint" />
            <mxPoint x="654.4898187420417" y="118.41268657820058" as="targetPoint" />
          </mxGeometry>
        </mxCell>
        <mxCell id="uNGdqKEiS1IPH4_wUevu-12" value="a data engineering architecture&lt;br&gt;left-to-right" style="rounded=0;whiteSpace=wrap;html=1;fontFamily=Helvetica;fontSize=19;" vertex="1" parent="1">
          <mxGeometry x="270" y="30" width="260" height="60" as="geometry" />
        </mxCell>
      </root>
    </mxGraphModel>
  </diagram>
</mxfile>
